<?xml version="1.0" standalone="no"?>
<!DOCTYPE svg PUBLIC "-//W3C//DTD SVG 20010904//EN"
 "http://www.w3.org/TR/2001/REC-SVG-20010904/DTD/svg10.dtd">
<svg version="1.0" xmlns="http://www.w3.org/2000/svg"
 width="512.000000pt" height="512.000000pt" viewBox="0 0 512.000000 512.000000"
 preserveAspectRatio="xMidYMid meet">
<metadata>
Created by potrace 1.11, written by Peter Selinger 2001-2013
</metadata>
<g transform="translate(0.000000,512.000000) scale(0.100000,-0.100000)"
fill="#000000" stroke="none">
<path d="M2321 4082 c-7 -14 -21 -18 -58 -17 -29 1 -52 -3 -58 -11 -5 -7 -29
-15 -51 -17 -23 -2 -48 -10 -57 -18 -8 -8 -33 -29 -55 -48 -23 -19 -38 -40
-35 -48 3 -7 0 -13 -7 -13 -6 0 -8 -4 -5 -10 3 -5 -3 -15 -14 -21 -10 -7 -17
-19 -14 -26 3 -8 -4 -23 -16 -34 -11 -11 -21 -25 -21 -30 0 -6 -7 -9 -15 -5
-12 4 -14 0 -9 -21 6 -21 4 -25 -8 -21 -10 4 -14 -1 -14 -16 1 -12 -4 -20 -12
-18 -10 2 -11 -4 -7 -19 5 -16 4 -19 -6 -14 -9 6 -11 4 -6 -8 3 -9 2 -19 -3
-22 -5 -3 -7 -12 -4 -20 4 -9 -3 -16 -21 -21 -16 -4 -24 -12 -21 -19 7 -19 -5
-27 -21 -14 -16 14 -17 5 -2 -24 9 -18 9 -20 -2 -9 -21 20 -32 14 -26 -14 3
-20 0 -28 -14 -31 -18 -5 -24 -16 -20 -37 1 -5 -6 -6 -15 -2 -12 5 -15 2 -11
-13 3 -14 0 -17 -15 -13 -12 3 -18 0 -16 -9 2 -8 -3 -13 -9 -12 -7 2 -13 -6
-13 -17 0 -17 -5 -19 -25 -14 -22 5 -24 4 -18 -12 6 -17 5 -17 -10 -5 -23 18
-32 8 -17 -19 11 -20 10 -21 -10 -15 -19 6 -21 4 -15 -17 6 -19 5 -21 -6 -10
-22 21 -37 14 -31 -15 5 -25 4 -27 -11 -14 -13 10 -17 11 -17 1 0 -17 -30 -39
-54 -40 -12 0 -16 -5 -12 -16 5 -12 2 -15 -10 -10 -12 4 -15 2 -10 -9 7 -20
-18 -20 -34 0 -20 24 -43 19 -38 -9 4 -17 1 -23 -9 -19 -7 3 -13 0 -13 -7 0
-9 -4 -9 -17 1 -15 13 -16 11 -10 -20 l7 -35 -26 24 -25 25 10 -28 c14 -36 14
-44 0 -30 -15 15 -39 5 -39 -16 -1 -12 -5 -11 -20 8 l-20 23 -1 -33 c0 -32 -1
-33 -11 -11 -16 32 -36 28 -31 -5 4 -22 2 -25 -6 -13 -9 13 -11 13 -11 -2 0
-22 -8 -23 -32 -1 -17 15 -18 15 -18 -2 0 -15 -2 -16 -16 -4 -15 12 -16 11
-10 -9 7 -22 -7 -31 -19 -12 -10 17 -25 11 -25 -10 0 -11 -4 -20 -9 -20 -5 0
-13 9 -16 20 -9 28 -25 25 -25 -5 0 -29 -7 -32 -27 -7 -8 9 -11 11 -8 4 5 -9
1 -13 -11 -11 -11 1 -32 -1 -48 -6 -18 -5 -36 -4 -47 4 -28 17 -32 14 -25 -16
6 -26 5 -27 -8 -10 -14 18 -15 18 -24 0 -10 -17 -11 -17 -17 0 -6 14 -10 15
-21 6 -10 -8 -14 -8 -14 0 0 6 -4 11 -9 11 -4 0 -8 -10 -7 -22 1 -20 -3 -22
-29 -20 -16 2 -34 10 -40 17 -13 17 -55 2 -55 -20 0 -22 -17 -18 -23 5 -7 26
-33 26 -40 0 -6 -22 -30 -18 -57 9 -13 13 -15 12 -18 -6 -3 -18 -8 -21 -36
-16 -26 4 -39 0 -61 -21 -15 -14 -38 -26 -51 -26 -19 0 -25 -8 -34 -40 -9 -33
-18 -42 -55 -59 -39 -17 -44 -23 -43 -51 1 -39 -28 -73 -42 -50 -7 12 -12 12
-22 2 -10 -10 -10 -17 1 -34 7 -11 9 -23 4 -27 -13 -9 -8 -102 6 -111 9 -5 10
-10 2 -14 -16 -10 -13 -37 6 -51 14 -11 13 -14 -15 -31 -37 -21 -39 -29 -15
-43 17 -10 17 -12 0 -25 -18 -14 -20 -29 -14 -121 2 -31 7 -42 25 -50 28 -12
28 -28 1 -47 -19 -12 -20 -17 -9 -35 11 -17 10 -24 -3 -43 -12 -17 -13 -29 -6
-48 7 -18 6 -28 -3 -34 -10 -7 -9 -11 4 -22 14 -10 15 -15 5 -26 -9 -10 -9
-13 0 -17 9 -3 10 -9 1 -23 -9 -14 -8 -24 5 -44 18 -27 23 -71 8 -80 -5 -3 -7
-23 -4 -43 2 -21 5 -57 6 -81 2 -24 9 -47 16 -51 9 -6 10 -10 2 -12 -18 -6
-22 -79 -5 -79 24 0 15 -26 -12 -39 -26 -11 -26 -12 -9 -31 18 -19 17 -20 -6
-20 -22 0 -22 -1 -7 -16 15 -15 15 -19 1 -41 -15 -22 -14 -25 3 -38 17 -13 18
-14 2 -15 -20 0 -24 -15 -8 -25 6 -3 10 -14 10 -24 0 -11 9 -21 22 -24 l22 -6
-22 -24 c-26 -28 -29 -63 -4 -72 27 -9 74 -54 67 -65 -3 -6 -2 -10 4 -10 5 0
14 6 18 13 14 21 45 17 65 -9 14 -18 26 -22 43 -18 17 4 24 1 27 -12 3 -17 5
-17 23 3 17 17 49 23 75 13 3 -1 9 -2 14 -1 4 1 14 -6 22 -16 10 -15 16 -16
32 -7 11 8 24 8 34 3 11 -6 18 -4 22 7 4 11 15 14 36 11 23 -4 31 -1 36 16 6
20 7 20 20 3 8 -12 19 -16 30 -12 10 4 21 2 24 -5 6 -8 13 -8 29 0 17 10 21 9
21 -4 0 -21 9 -19 31 8 16 19 18 19 19 5 0 -26 35 -22 47 4 l10 23 7 -21 c6
-21 32 -34 66 -34 9 0 24 14 33 30 23 39 33 38 41 -5 8 -42 22 -53 32 -23 13
44 44 51 44 11 0 -19 3 -24 8 -15 5 7 15 10 23 7 9 -3 27 5 42 19 26 24 27 24
37 5 13 -24 30 -25 30 -1 0 14 4 13 19 -7 17 -22 19 -23 28 -6 10 17 11 16 18
-5 7 -22 9 -22 20 -7 11 15 13 16 18 2 5 -12 11 -13 34 -3 15 7 31 17 35 22 4
6 15 2 28 -9 21 -19 30 -16 43 20 3 6 14 -1 25 -14 25 -28 49 -22 58 14 8 34
20 32 28 -6 l6 -32 20 23 c11 13 20 18 20 11 0 -7 7 -10 18 -7 9 3 23 2 31 -3
9 -6 20 -2 32 10 24 24 44 24 55 -1 9 -18 11 -18 79 9 75 30 95 30 95 0 0 -15
7 -19 39 -19 22 0 42 4 45 9 5 7 41 8 41 1 0 -1 32 -3 71 -4 38 -2 80 -9 93
-15 26 -15 25 -15 38 24 l11 30 7 -28 c8 -29 20 -35 28 -13 6 16 59 15 80 -2
15 -13 57 -12 57 1 0 5 6 5 13 -2 10 -8 17 -7 25 1 8 8 15 7 25 -4 18 -18 107
-13 185 11 17 5 32 7 32 3 0 -4 4 0 9 7 8 12 12 10 22 -12 14 -31 55 -37 74
-10 11 15 13 15 20 -6 5 -18 9 -20 21 -10 11 9 17 9 29 -1 12 -10 15 -10 15 1
0 11 2 11 10 -1 8 -13 10 -12 10 3 0 23 12 22 28 -3 15 -24 25 -25 48 -3 9 10
28 17 42 18 15 0 28 7 31 18 6 17 8 17 20 3 7 -9 20 -16 27 -16 8 0 14 -4 14
-10 0 -17 27 -11 34 7 5 12 9 14 14 6 4 -6 21 -11 37 -12 17 0 46 -3 65 -6 70
-12 105 -11 123 3 11 10 17 11 17 4 0 -7 7 -12 15 -12 8 0 15 5 15 10 0 6 8
10 18 10 10 0 23 5 30 12 8 8 12 9 12 1 0 -6 8 -19 17 -28 15 -16 18 -15 34 6
16 21 18 22 24 7 6 -14 11 -16 27 -7 15 8 22 8 28 -1 5 -8 13 -2 26 19 22 38
30 39 38 6 7 -29 39 -34 73 -10 20 14 26 14 63 -1 31 -13 43 -14 54 -5 11 10
16 8 21 -10 l7 -22 18 24 c18 23 19 23 40 4 17 -16 24 -17 41 -7 15 9 23 9 38
0 15 -9 22 -8 36 5 18 18 37 22 49 9 13 -13 96 -9 96 5 0 20 18 15 25 -6 7
-22 42 -31 66 -17 9 5 25 5 35 1 11 -5 21 -9 24 -9 3 -1 11 -5 18 -9 6 -5 12
-4 12 2 0 5 13 16 29 24 25 12 32 12 54 -1 24 -15 28 -15 46 2 12 11 21 14 26
7 10 -17 25 -13 25 7 0 14 4 12 20 -8 17 -22 21 -24 41 -12 17 11 23 11 29 2
4 -7 13 -9 19 -6 6 4 11 2 11 -4 0 -8 6 -8 20 0 15 8 20 8 20 -2 0 -8 4 -7 10
4 7 12 20 16 46 13 25 -2 41 2 54 15 10 10 21 16 24 13 17 -17 56 -9 71 13 9
14 21 24 28 23 31 -4 45 3 55 26 6 14 9 31 6 39 -3 7 2 20 10 29 20 20 20 26
-1 49 -16 17 -15 19 15 30 36 14 40 23 16 32 -13 5 -14 9 -4 21 7 8 10 22 6
30 -3 8 0 15 7 15 8 1 7 5 -3 13 -10 7 -15 24 -13 45 2 24 -1 32 -14 32 -15 0
-15 2 1 19 11 12 14 21 7 26 -17 10 -13 40 9 60 28 26 25 45 -10 52 -38 7 -47
20 -20 28 11 4 18 10 15 15 -2 4 4 19 15 33 l20 26 -21 14 -21 15 23 12 22 12
-23 13 c-15 8 -19 15 -11 19 19 12 12 53 -11 68 l-23 15 32 7 c17 4 34 13 37
21 5 13 -33 45 -54 45 -24 0 -5 31 29 46 23 10 22 11 -20 24 l-44 13 36 9 c34
9 36 12 36 48 0 31 -4 41 -20 46 -20 6 -20 8 8 30 17 13 25 24 19 24 -5 0 -18
6 -28 13 -19 14 -13 47 10 47 15 0 18 12 7 24 -12 11 -10 150 1 158 5 4 -2 10
-17 13 -32 8 -35 21 -7 30 17 5 19 12 14 48 -4 23 -14 50 -22 60 -9 11 -11 17
-4 17 15 0 10 33 -7 53 -10 13 -9 17 5 25 10 6 16 21 16 38 -1 16 -2 44 -3 62
-1 18 6 41 16 51 11 13 13 21 5 26 -8 5 -8 10 0 20 14 16 3 43 -21 50 -27 9
-24 33 6 41 26 6 33 20 13 26 -12 4 -22 48 -10 48 26 1 32 17 16 49 -14 28
-14 35 -3 42 12 8 11 12 -4 23 -17 13 -17 14 0 20 14 6 15 9 4 16 -12 7 -12
13 -1 39 11 27 10 34 -4 50 -15 16 -15 20 -1 31 8 7 12 16 9 21 -3 5 -1 9 5 9
7 0 7 9 0 27 -7 19 -7 29 0 31 17 6 2 22 -20 22 -20 0 -26 15 -10 24 5 3 11
19 13 36 4 24 1 30 -13 30 -31 0 -30 18 0 25 42 9 55 28 33 47 -9 9 -26 18
-37 20 -30 5 -31 34 0 42 24 6 25 7 9 31 -15 23 -15 25 1 25 13 0 15 3 7 13
-7 8 -7 18 -2 27 6 10 4 21 -7 32 -15 17 -15 20 2 38 28 30 30 60 5 60 -27 0
-36 25 -16 45 21 21 5 46 -46 75 -21 12 -38 27 -38 35 0 9 -9 12 -30 9 -16 -3
-30 -1 -30 4 0 17 -32 23 -152 28 -78 3 -125 1 -139 -7 -29 -15 -68 -19 -75
-7 -4 6 -10 5 -15 -3 -6 -9 -12 -10 -16 -4 -11 14 -203 16 -203 2 0 -8 -3 -8
-11 0 -12 12 -98 5 -116 -9 -7 -6 -19 -5 -32 1 -11 6 -31 11 -45 11 -14 0 -26
3 -26 8 0 4 -11 12 -25 18 -21 10 -28 8 -51 -13 -14 -13 -27 -23 -28 -21 -1 2
-7 14 -13 28 l-11 25 -10 -25 -9 -24 -13 21 c-13 20 -15 20 -27 5 -8 -12 -12
-13 -13 -4 0 10 -9 11 -32 7 -18 -4 -46 -9 -61 -12 -19 -4 -34 1 -48 13 -20
18 -30 14 -42 -21 -2 -5 -14 1 -27 13 -22 20 -25 21 -42 5 -10 -9 -18 -22 -18
-30 0 -21 -17 -15 -23 8 -4 16 -9 19 -22 11 -11 -6 -29 -5 -52 3 -31 11 -38
10 -54 -6 -26 -26 -47 -24 -55 6 -6 24 -34 36 -34 14 0 -5 -5 -7 -10 -4 -6 4
-16 2 -23 -3 -7 -5 -27 -9 -45 -7 -18 1 -35 -2 -38 -7 -3 -5 -21 0 -40 11 -34
21 -34 21 -54 1 -24 -24 -43 -25 -60 -5 -13 15 -39 13 -93 -7 -21 -8 -31 -8
-36 0 -3 6 -18 13 -32 17 -23 6 -28 3 -37 -22 l-10 -28 -7 28 c-9 32 -21 35
-30 6 -5 -15 -10 -17 -20 -9 -7 6 -19 8 -27 5 -7 -3 -24 4 -36 16 -24 21 -52
20 -52 -3 0 -9 -3 -9 -11 2 -8 11 -12 12 -15 3 -6 -13 -54 -8 -86 9 -12 6 -28
3 -48 -7 -25 -13 -31 -13 -35 -2 -6 15 -77 18 -86 4 -4 -6 -17 -3 -30 7 -31
21 -56 20 -68 -2z m89 -32 c0 -5 -5 -10 -11 -10 -5 0 -7 5 -4 10 3 6 8 10 11
10 2 0 4 -4 4 -10z"/>
</g>
</svg>
