<?xml version="1.0" encoding="utf-8"?>
<!-- Generator: Adobe Illustrator 16.0.4, SVG Export Plug-In . SVG Version: 6.00 Build 0)  -->
<!DOCTYPE svg PUBLIC "-//W3C//DTD SVG 1.1//EN" "http://www.w3.org/Graphics/SVG/1.1/DTD/svg11.dtd">
<svg version="1.1" id="Layer_1" xmlns="http://www.w3.org/2000/svg" xmlns:xlink="http://www.w3.org/1999/xlink" x="0px" y="0px"
	 width="1024px" height="1024px" viewBox="0 0 1024 1024" enable-background="new 0 0 1024 1024" xml:space="preserve">
<g>
	<g>
		<path fill="#A8A79A" d="M545.909,0c18.073,2.476,36.262,4.312,54.202,7.531c141.18,25.331,250.931,98.959,331.68,216.833
			c6.204,9.06,11.837,18.513,17.679,27.82c0.476,0.76,0.488,1.809,0.992,3.836c-4.021,0-7.543,0-11.063,0
			c-142.307,0-284.61,0.02-426.915-0.012c-41.052-0.008-81.358,4.891-118.604,23.084C327.332,311.6,283.292,364.12,259.94,434.227
			c-1.235,3.707-2.441,7.427-4.147,12.622c-2.513-3.854-4.319-6.422-5.919-9.113c-45.779-76.995-91.416-154.075-137.499-230.888
			c-4.224-7.044-3.526-11.292,1.341-17.268C193.547,91.578,295.928,31.637,419.782,8.11c19.199-3.65,38.749-5.455,58.137-8.11
			C500.583,0,523.245,0,545.909,0z"/>
		<path fill="#A8A79A" d="M0,478.039c2.654-20.412,4.738-40.917,8.076-61.218c9.199-55.964,27.329-108.908,55.396-159.753
			c1.99,2.71,3.645,4.553,4.845,6.655c68.16,119.425,137.138,238.395,203.98,358.555c26.098,46.916,58.52,86.551,104.645,114.065
			c62.189,37.099,128.273,48.205,198.609,27.459c1.898-0.561,3.832-1.016,5.764-1.455c0.25-0.059,0.587,0.256,1.525,0.711
			c-1.496,2.802-2.904,5.638-4.484,8.371c-45.776,79.299-91.639,158.549-137.229,237.953c-3.601,6.271-6.674,8.604-14.6,7.303
			C217.113,982.34,46.968,816.799,8.607,609.229c-3.261-17.646-4.55-35.655-6.826-53.487c-0.416-3.254-1.179-6.465-1.781-9.695
			C0,523.377,0,500.707,0,478.039z"/>
		<path fill="#A8A79A" d="M518.34,1023.977c2.473-4.557,3.964-7.479,5.608-10.312c66.791-115.201,133.282-230.578,200.617-345.461
			c16.906-28.849,33.44-57.529,41.312-90.351c22.044-91.904-2.348-171.697-63.14-241.977c-2.181-2.517-4.488-4.924-6.736-7.383
			c-2.018-2.205-4.037-4.41-6.957-7.601c3.314-0.354,5.699-0.834,8.08-0.834c93.295-0.038,186.59,0.072,279.883-0.241
			c7.102-0.023,9.772,2.796,12.259,8.558c21.812,50.524,31.407,103.688,34.1,158.268
			c10.531,213.575-110.729,409.954-306.481,496.397c-60.503,26.717-124.179,39.08-190.073,40.93
			C524.519,1024.033,522.224,1023.977,518.34,1023.977z"/>
		<path fill="#A8A79A" d="M512.543,320.033c105.829,0.227,191.576,86.56,191.33,192.64
			c-0.244,105.825-86.61,191.633-192.621,191.375c-105.845-0.258-191.537-86.562-191.299-192.669
			C320.191,405.489,406.43,319.807,512.543,320.033z"/>
	</g>
</g>
</svg>
